<svg version="1.2" xmlns="http://www.w3.org/2000/svg" viewBox="0 0 26 26" width="26" height="26">
	<title>083e06944f90860d3454</title>
	<style>
		.s0 { fill: #09a5db } 
		.s1 { fill: #ffffff } 
	</style>
	<g>
		<g>
			<g>
				<path id="a" class="s0" d="m21.9 1.5h-20.6c-0.7 0-1.3 0.6-1.3 1.3v2.3c0 0.7 0.6 1.3 1.3 1.3h20.6c0.7 0 1.3-0.6 1.3-1.3v-2.3c0-0.7-0.6-1.3-1.3-1.3z"/>
				<path id="b" class="s0" d="m21.9 14.3h-20.6c-0.7 0-1.3 0.6-1.3 1.3v2.3c0 0.7 0.6 1.3 1.3 1.3h20.6c0.7 0 1.3-0.6 1.3-1.3v-2.3c0-0.7-0.6-1.3-1.3-1.3z"/>
				<path id="c" class="s0" d="m12.9 20.7h-11.6c-0.7 0-1.3 0.6-1.3 1.3v2.3c0 0.7 0.6 1.2 1.3 1.2h11.6c0.7 0 1.3-0.5 1.3-1.2v-2.3q0-0.3-0.1-0.5-0.1-0.3-0.3-0.4-0.2-0.2-0.4-0.3-0.3-0.1-0.5-0.1z"/>
				<path id="d" class="s0" d="m23.2 7.9h-21.9c-0.7 0-1.3 0.6-1.3 1.3v2.3c0 0.7 0.6 1.3 1.3 1.3h21.9c0.7 0 1.2-0.6 1.2-1.3v-2.3c0-0.7-0.5-1.3-1.2-1.3z"/>
			</g>
			<path id="a" class="s0" d="m21.9 1.5h-20.6c-0.7 0-1.3 0.6-1.3 1.3v2.3c0 0.7 0.6 1.3 1.3 1.3h20.6c0.7 0 1.3-0.6 1.3-1.3v-2.3c0-0.7-0.6-1.3-1.3-1.3z"/>
		</g>
		<g>
			<path id="e" class="s1" d="m47 7.5q-0.2-0.2-0.5-0.4-0.2-0.2-0.4-0.3-0.3-0.2-0.5-0.3-0.3-0.2-0.6-0.3-0.2-0.1-0.5-0.2-0.3-0.1-0.6-0.1-0.3-0.1-0.6-0.1-0.3-0.1-0.6-0.1-1.3 0-2.2 0.5-0.8 0.4-1.3 0.9v-0.3q0-0.1 0-0.1 0-0.1 0-0.2 0 0-0.1-0.1 0 0-0.1-0.1 0 0-0.1-0.1 0 0-0.1-0.1 0 0-0.1 0-0.1 0-0.1 0h-2.5q-0.1 0-0.2 0 0 0-0.1 0 0 0.1-0.1 0.1-0.1 0.1-0.1 0.1 0 0.1-0.1 0.1 0 0.1 0 0.1-0.1 0.1-0.1 0.2 0 0 0 0.1v16.4q0 0.3 0.2 0.5 0.2 0.2 0.5 0.2h2.5q0.1 0 0.1 0 0.1-0.1 0.2-0.1 0 0 0.1 0 0-0.1 0.1-0.1 0-0.1 0.1-0.1 0-0.1 0-0.1 0.1-0.1 0.1-0.2 0 0 0-0.1v-5.6q0.5 0.6 1.3 0.9 0.2 0 0.5 0.1 0.3 0.1 0.5 0.1 0.3 0.1 0.5 0.1 0.3 0 0.6 0 1.2 0 2.3-0.4 0.3-0.1 0.5-0.3 0.3-0.1 0.6-0.3 0.2-0.2 0.4-0.4 0.3-0.1 0.5-0.4 0.2-0.2 0.4-0.4 0.2-0.3 0.3-0.5 0.2-0.3 0.3-0.6 0.2-0.2 0.3-0.5 0.5-1.2 0.5-2.7 0-1.5-0.5-2.7-0.5-1.2-1.3-2.1zm-2.3 6q-0.1 0.1-0.1 0.2-0.1 0.1-0.2 0.2 0 0.2-0.1 0.3-0.1 0.1-0.2 0.2-0.1 0.1-0.2 0.2-0.1 0.1-0.2 0.1-0.1 0.1-0.2 0.2-0.2 0.1-0.3 0.1-0.1 0.1-0.3 0.1-0.1 0.1-0.2 0.1-0.2 0-0.3 0-0.2 0-0.3 0-0.3 0-0.6 0-0.2-0.1-0.5-0.2-0.3-0.1-0.5-0.3-0.2-0.1-0.4-0.3-0.1-0.1-0.2-0.2-0.1-0.1-0.2-0.3-0.1-0.1-0.1-0.2-0.1-0.1-0.1-0.2-0.1-0.2-0.1-0.3-0.1-0.2-0.1-0.3 0-0.2 0-0.3-0.1-0.2-0.1-0.3 0-0.6 0.3-1.2 0.2-0.5 0.6-0.9 0.1-0.1 0.2-0.2 0.1-0.1 0.2-0.1 0.1-0.1 0.2-0.2 0.2 0 0.3-0.1 0.1-0.1 0.2-0.1 0.2-0.1 0.3-0.1 0.2 0 0.3 0 0.1 0 0.3 0 0.6 0 1.1 0.2 0.1 0.1 0.3 0.1 0.1 0.1 0.2 0.2 0.1 0 0.2 0.1 0.1 0.1 0.2 0.2 0.1 0.1 0.2 0.2 0.1 0.1 0.1 0.3 0.1 0.1 0.2 0.2 0 0.1 0.1 0.2 0.2 0.6 0.2 1.2 0 0.6-0.2 1.2z"/>
			<path id="f" class="s1" d="m62.4 6.1h-2.5q-0.1 0-0.2 0 0 0-0.1 0 0 0.1-0.1 0.1 0 0-0.1 0.1 0 0-0.1 0.1 0 0.1 0 0.1-0.1 0.1-0.1 0.1 0 0.1 0 0.2v0.3q-0.4-0.5-1.1-0.9-1-0.5-2.2-0.5-1.2 0-2.3 0.5-1.2 0.5-2 1.3-0.3 0.2-0.5 0.5-0.2 0.2-0.3 0.5-0.2 0.2-0.4 0.5-0.1 0.3-0.2 0.6-0.5 1.2-0.5 2.7 0 1.5 0.5 2.7 0.5 1.2 1.4 2 0.2 0.3 0.4 0.4 0.2 0.2 0.5 0.4 0.2 0.2 0.5 0.3 0.2 0.2 0.5 0.3 0.3 0.1 0.6 0.2 0.3 0.1 0.6 0.1 0.3 0.1 0.6 0.1 0.2 0 0.5 0 1.3 0 2.3-0.4 0.7-0.4 1.1-0.9v0.3q0 0.3 0.2 0.5 0.1 0 0.1 0.1 0.1 0 0.1 0 0.1 0.1 0.1 0.1 0.1 0 0.2 0h2.5q0 0 0.1 0 0.1 0 0.1-0.1 0.1 0 0.2 0 0-0.1 0.1-0.1 0-0.1 0-0.1 0.1-0.1 0.1-0.1 0-0.1 0-0.2 0 0 0-0.1v-11q0-0.1 0-0.1 0-0.1 0-0.2 0 0-0.1-0.1 0 0 0-0.1-0.1 0-0.1-0.1-0.1 0-0.2-0.1 0 0-0.1 0-0.1 0-0.1 0zm-3.4 7.3q-0.1 0.2-0.1 0.3-0.1 0.1-0.2 0.2 0 0.2-0.1 0.3-0.1 0.1-0.2 0.2-0.1 0.1-0.2 0.2-0.1 0-0.2 0.1-0.1 0.1-0.2 0.2-0.2 0-0.3 0.1-0.5 0.2-1.1 0.2-0.6 0-1.1-0.2-0.1-0.1-0.3-0.1-0.1-0.1-0.2-0.2-0.1 0-0.2-0.1-0.1-0.1-0.2-0.2-0.1-0.1-0.2-0.2-0.1-0.1-0.2-0.3 0-0.1-0.1-0.2-0.1-0.1-0.1-0.3-0.1-0.1-0.1-0.2 0-0.2-0.1-0.3 0-0.2 0-0.3 0-0.2 0-0.3 0-0.6 0.2-1.2 0.2-0.5 0.6-0.9 0.1-0.1 0.2-0.2 0.1-0.1 0.2-0.1 0.1-0.1 0.2-0.2 0.2 0 0.3-0.1 0.5-0.2 1.1-0.2 0.6 0 1.1 0.2 0.5 0.2 0.9 0.6 0.4 0.4 0.6 0.9 0.2 0.6 0.2 1.2 0 0.6-0.2 1.1z"/>
			<path id="g" class="s1" d="m87.4 12q-0.1-0.2-0.3-0.3-0.1-0.1-0.3-0.2-0.1-0.1-0.3-0.1-0.2-0.1-0.3-0.2-0.7-0.3-1.5-0.4l-1.9-0.4q-0.8-0.1-1-0.4-0.3-0.2-0.3-0.4 0-0.3 0.4-0.6 0.4-0.2 1-0.2 0.2 0 0.4 0 0.2 0 0.4 0.1 0.1 0 0.3 0.1 0.2 0 0.4 0.1 0.6 0.3 1.2 0.7 0.9 0.5 1.4-0.1l0.9-1.1q0.3-0.3 0.3-0.6 0-0.4-0.4-0.7-0.5-0.5-1.8-1-1.2-0.6-3.1-0.6-1.2 0-2.2 0.4-1 0.3-1.7 0.8-0.7 0.6-1 1.3-0.1 0.2-0.2 0.4-0.1 0.2-0.1 0.4-0.1 0.2-0.1 0.4 0 0.2 0 0.4 0 1.6 0.9 2.5 1 0.9 2.5 1.3l2 0.4q0.8 0.1 1.2 0.4 0.4 0.1 0.4 0.5 0 0.3-0.3 0.6-0.4 0.3-1.2 0.3-0.2 0-0.4 0-0.2-0.1-0.4-0.1-0.2 0-0.4-0.1-0.2-0.1-0.4-0.2-0.2 0-0.3-0.1-0.2-0.1-0.4-0.2-0.1-0.1-0.3-0.3-0.1-0.1-0.3-0.2 0-0.1-0.1-0.1-0.1 0-0.1-0.1-0.1 0-0.2-0.1-0.1 0-0.1 0-0.4-0.1-0.9 0.2l-1.1 0.9q-0.4 0.4-0.4 0.9 0.1 0.5 1 1.2 0.7 0.5 1.9 0.9 1.2 0.4 2.8 0.4 1.2 0 2.2-0.3 1.1-0.3 1.8-0.9 0.2-0.1 0.4-0.3 0.1-0.1 0.3-0.3 0.1-0.2 0.2-0.3 0.2-0.2 0.3-0.4 0.1-0.2 0.1-0.4 0.1-0.2 0.2-0.4 0-0.3 0-0.5 0.1-0.2 0.1-0.4 0-0.9-0.3-1.5-0.1-0.2-0.2-0.3-0.1-0.2-0.2-0.3-0.1-0.2-0.2-0.3-0.2-0.1-0.3-0.2z"/>
			<path id="h" class="s1" d="m98.4 15q-0.2-0.4-0.6-0.4-0.3 0-0.6 0.2-0.1 0.1-0.2 0.1 0 0-0.1 0.1-0.1 0-0.1 0-0.1 0-0.2 0.1-0.1 0-0.1 0-0.1 0-0.1 0-0.1 0-0.1 0-0.1 0-0.1 0-0.2 0-0.4 0-0.1 0-0.1 0 0-0.1-0.1-0.1 0 0-0.1 0 0 0 0-0.1-0.2-0.1-0.3-0.4-0.1-0.2-0.1-0.6v-4.5h3.2q0.3 0 0.5-0.2 0.3-0.2 0.3-0.5v-1.9q0-0.1-0.1-0.2 0 0 0-0.1 0 0-0.1-0.1 0-0.1-0.1-0.1 0-0.1-0.1-0.1 0 0-0.1-0.1-0.1 0-0.1 0-0.1 0-0.2 0h-3.2v-3.1q0-0.3-0.2-0.5-0.1 0-0.1 0-0.1-0.1-0.1-0.1-0.1 0-0.2 0 0-0.1-0.1-0.1h-2.5q-0.1 0-0.2 0.1 0 0-0.1 0 0 0-0.1 0-0.1 0.1-0.1 0.1-0.1 0.1-0.1 0.1 0 0.1-0.1 0.2 0 0 0 0.1 0 0.1 0 0.1v3.1h-1.5q0 0-0.1 0-0.1 0-0.1 0-0.1 0.1-0.1 0.1-0.1 0.1-0.1 0.1-0.1 0.1-0.1 0.1-0.1 0.1-0.1 0.1 0 0.1 0 0.2 0 0 0 0.1v1.9q0 0.2 0.2 0.5 0 0 0.1 0.1 0 0 0.1 0 0 0.1 0.1 0.1 0.1 0 0.1 0h1.5v5.3q0 1.1 0.4 1.9 0.3 0.7 0.9 1.2 0.2 0.1 0.3 0.2 0.2 0.1 0.4 0.2 0.2 0.1 0.3 0.2 0.2 0.1 0.4 0.1 0.2 0.1 0.4 0.1 0.2 0.1 0.4 0.1 0.2 0 0.4 0 0.2 0.1 0.4 0.1 1.1 0 2-0.4 1-0.3 1.7-1 0.4-0.5 0.1-1.1c0 0-0.9-1.3-0.9-1.3z"/>
			<path id="i" class="s1" d="m112.1 6.1h-2.5q0 0-0.1 0-0.1 0-0.1 0-0.1 0.1-0.1 0.1-0.1 0-0.1 0.1-0.1 0-0.1 0.1-0.1 0.1-0.1 0.1 0 0.1 0 0.1 0 0.1 0 0.2v0.3q-0.5-0.5-1.2-0.9-0.9-0.5-2.2-0.5-1.2 0-2.3 0.5-1.1 0.5-2 1.3-0.2 0.2-0.4 0.5-0.2 0.2-0.4 0.5-0.2 0.2-0.3 0.5-0.1 0.3-0.3 0.6-0.5 1.2-0.5 2.7 0 1.5 0.5 2.7 0.5 1.2 1.4 2 0.2 0.3 0.4 0.4 0.3 0.2 0.5 0.4 0.3 0.2 0.5 0.3 0.3 0.2 0.6 0.3 0.3 0.1 0.5 0.2 0.3 0.1 0.6 0.1 0.3 0.1 0.6 0.1 0.3 0 0.6 0 1.2 0 2.2-0.4 0.7-0.4 1.2-0.9v0.3q0 0.3 0.2 0.5 0 0 0.1 0.1 0 0 0.1 0 0 0.1 0.1 0.1 0.1 0 0.1 0h2.5q0.1 0 0.2 0 0 0 0.1-0.1 0 0 0.1 0 0.1-0.1 0.1-0.1 0.1-0.1 0.1-0.1 0-0.1 0.1-0.1 0-0.1 0-0.2 0 0 0-0.1v-11q0-0.1 0-0.1 0-0.1 0-0.2-0.1 0-0.1-0.1 0 0-0.1-0.1 0 0-0.1-0.1 0 0-0.1-0.1-0.1 0-0.1 0-0.1 0-0.2 0zm-3.4 7.3q0 0.2-0.1 0.3 0 0.1-0.1 0.2-0.1 0.2-0.2 0.3-0.1 0.1-0.1 0.2-0.1 0.1-0.2 0.2-0.2 0.1-0.3 0.1-0.1 0.1-0.2 0.2-0.1 0-0.2 0.1-0.2 0.1-0.3 0.1-0.1 0.1-0.3 0.1-0.1 0-0.3 0-0.1 0-0.3 0-0.5 0-1.1-0.2-0.1-0.1-0.2-0.1-0.1-0.1-0.3-0.2-0.1 0-0.2-0.1-0.1-0.1-0.2-0.2-0.1-0.1-0.2-0.2 0-0.1-0.1-0.3-0.1-0.1-0.2-0.2 0-0.1-0.1-0.3 0-0.1-0.1-0.2 0-0.2 0-0.3-0.1-0.2-0.1-0.3 0-0.2 0-0.3 0-0.6 0.2-1.2 0.1-0.1 0.1-0.2 0.1-0.1 0.2-0.2 0.1-0.2 0.1-0.3 0.1-0.1 0.2-0.2 0.1-0.1 0.2-0.2 0.1-0.1 0.2-0.1 0.2-0.1 0.3-0.2 0.1 0 0.2-0.1 0.2-0.1 0.3-0.1 0.1-0.1 0.3-0.1 0.1 0 0.3 0 0.1 0 0.2 0 0.7 0 1.2 0.2 0.5 0.2 0.9 0.6 0.3 0.4 0.5 0.9 0.3 0.6 0.3 1.2 0 0.6-0.3 1.1z"/>
			<path id="j" class="s1" d="m125.9 14.8l-1.4-1.1q-0.4-0.3-0.8-0.2-0.1 0.1-0.1 0.1-0.1 0-0.2 0.1 0 0-0.1 0.1-0.1 0-0.1 0.1-0.5 0.6-1.1 1-0.6 0.3-1.4 0.3-0.6 0-1.1-0.2-0.2-0.1-0.3-0.1-0.1-0.1-0.2-0.2-0.1-0.1-0.2-0.1-0.1-0.1-0.2-0.2-0.1-0.1-0.2-0.3-0.1-0.1-0.2-0.2 0-0.1-0.1-0.2-0.1-0.1-0.1-0.3-0.1-0.1-0.1-0.2 0-0.2-0.1-0.3 0-0.2 0-0.3 0-0.2 0-0.3 0-0.6 0.2-1.2 0.2-0.5 0.6-0.9 0.1-0.1 0.2-0.2 0.1-0.1 0.2-0.1 0.1-0.1 0.2-0.2 0.1-0.1 0.3-0.1 0.1-0.1 0.2-0.1 0.2-0.1 0.3-0.1 0.1 0 0.3 0 0.1 0 0.3 0 0.8 0 1.4 0.3 0.5 0.3 1.1 1 0.2 0.2 0.5 0.4 0.4 0.1 0.8-0.2l1.4-1.1q0.3-0.2 0.4-0.5 0-0.1 0-0.2 0-0.1 0-0.2 0 0 0-0.1 0-0.1-0.1-0.2-0.8-1.2-2.2-2-1.4-0.8-3.4-0.9-0.3 0-0.6 0.1-0.4 0-0.7 0.1-0.3 0-0.7 0.1-0.3 0.1-0.6 0.3-0.3 0.1-0.6 0.2-0.2 0.2-0.5 0.3-0.3 0.2-0.5 0.4-0.3 0.2-0.5 0.4-0.2 0.3-0.4 0.5-0.2 0.2-0.4 0.5-0.2 0.3-0.3 0.5-0.2 0.3-0.3 0.6-0.1 0.3-0.2 0.6-0.1 0.4-0.2 0.7-0.1 0.3-0.1 0.6 0 0.4 0 0.7 0 1.4 0.5 2.6 0.1 0.3 0.3 0.5 0.1 0.3 0.3 0.6 0.2 0.2 0.4 0.5 0.2 0.2 0.4 0.4 0.5 0.5 1 0.8 0.6 0.4 1.2 0.6 0.6 0.3 1.2 0.4 0.7 0.1 1.3 0.1 2 0 3.4-0.8 1.4-0.8 2.2-2.1 0.1 0 0.1-0.1 0-0.1 0-0.2 0-0.1 0-0.1 0-0.1 0-0.2 0-0.1-0.1-0.2 0 0-0.1-0.1 0 0-0.1-0.1 0-0.1-0.1-0.1z"/>
			<path id="k" class="s1" d="m139.3 17.4l-4-5.8 3.4-4.4q0.3-0.4 0.1-0.7c0-0.2-0.2-0.4-0.6-0.4h-2.7q-0.2 0-0.4 0.1-0.3 0.1-0.4 0.4l-2.7 3.7h-0.7v-8.8q0-0.1 0-0.2 0 0 0-0.1-0.1-0.1-0.1-0.1 0-0.1-0.1-0.1 0-0.1-0.1-0.1 0 0-0.1-0.1-0.1 0-0.1 0-0.1 0-0.1 0h-2.6q0 0-0.1 0-0.1 0-0.1 0-0.1 0.1-0.1 0.1-0.1 0-0.1 0.1-0.1 0-0.1 0.1-0.1 0-0.1 0.1 0 0.1 0 0.1-0.1 0.1 0 0.2v16.3q0 0.3 0.2 0.5 0 0 0.1 0.1 0 0 0.1 0 0 0.1 0.1 0.1 0.1 0 0.1 0h2.6q0 0 0.1 0 0 0 0.1-0.1 0.1 0 0.1 0 0.1-0.1 0.1-0.1 0.1-0.1 0.1-0.1 0-0.1 0.1-0.1 0-0.1 0-0.2 0 0 0-0.1v-4.3h0.7l3 4.5q0.3 0.5 0.9 0.5h2.8c0.4 0 0.6-0.2 0.7-0.4q0.1-0.3-0.1-0.7z"/>
			<path id="l" class="s1" d="m76.7 6.1h-2.9q-0.3 0-0.5 0.2-0.1 0.1-0.1 0.1 0 0.1-0.1 0.1 0 0.1 0 0.1-0.1 0.1-0.1 0.2l-2 7.6h-0.5l-2.3-7.6q0-0.1 0-0.1 0-0.1-0.1-0.2 0 0 0-0.1 0 0-0.1-0.1 0 0-0.1-0.1 0 0-0.1-0.1-0.1 0-0.1 0-0.1 0-0.2 0h-2.9q-0.6 0-0.7 0.3-0.1 0.4 0 0.7l3.6 10.8q0 0.2 0.2 0.4 0.2 0.2 0.6 0.2h1.5l-0.2 0.3-0.3 1q-0.2 0.5-0.6 0.8-0.1 0.1-0.2 0.1-0.1 0.1-0.2 0.1-0.1 0-0.2 0.1-0.1 0-0.2 0-0.4 0-0.8-0.2 0 0-0.1-0.1-0.1 0-0.2-0.1-0.1 0-0.2-0.1 0 0-0.1-0.1-0.1 0-0.2-0.1 0 0-0.1 0-0.1 0-0.2-0.1-0.1 0-0.1 0h-0.1q-0.3 0-0.6 0.4l-0.9 1.3c-0.4 0.6-0.2 0.9 0.1 1.1q0.6 0.7 1.6 1 1 0.3 2.2 0.3 1.9 0 3.1-1 1.3-1 1.8-2.8l4.2-13.3q0.1-0.4 0-0.7c-0.1-0.1-0.3-0.3-0.6-0.3z"/>
		</g>
	</g>
</svg>